# xmcd
#
# Track frame offsets: 
#        150
#        18117
#        34790
#        49924
#        65890
#        93825
#        115683
#        139719
#        167515
#        185536
#        204642
#        220638
#        235326
#        254443
#
# Disc length: 3643 seconds
#
# Revision: 0
# Processed by: cddbd v1.5.2PL0 Copyright (c) Steve Scherf et al.
# Submitted via: ExactAudioCopy v0.99pb4
#
DISCID=c00e390e
DTITLE=Billy Crash - Bluesworscht
DYEAR=2009
DGENRE=Blues
TTITLE0=Bluesworscht
TTITLE1=Heimat
TTITLE2=Ännie
TTITLE3=Loss uns donze
TTITLE4=lieb dich zwaamol
TTITLE5=Koo Panik
TTITLE6=Meedcher aus Rhoihesse
TTITLE7=Widder mool hoom
TTITLE8=Sixty special
TTITLE9=Wollt emol
TTITLE10=Naggisch vor de Tür
TTITLE11=Un die Mussig spielt
TTITLE12=Is wahr
TTITLE13=Lisbeth
EXTD=
EXTT0=
EXTT1=
EXTT2=
EXTT3=
EXTT4=
EXTT5=
EXTT6=
EXTT7=
EXTT8=
EXTT9=
EXTT10=
EXTT11=
EXTT12=
EXTT13=
PLAYORDER=
